<svg width="1022" height="652" viewBox="0 0 1022 652" fill="none" xmlns="http://www.w3.org/2000/svg">
<path d="M708.861 122.938C716.497 139.298 714.999 159.124 705.401 181.15C695.805 203.173 678.176 227.225 653.866 251.839C605.254 301.058 530.163 352.29 440.104 393.807C350.044 435.323 262.19 459.207 192.984 464.3C158.375 466.847 128.513 464.688 105.397 457.745C82.2793 450.801 66.0819 439.132 58.4466 422.772C50.8112 406.413 52.3091 386.586 61.9067 364.561C71.5033 342.537 89.1325 318.486 113.442 293.872C162.054 244.653 237.145 193.421 327.204 151.904C417.264 110.388 505.118 86.5038 574.324 81.4107C608.933 78.8637 638.795 81.0225 661.911 87.9657C685.029 94.9096 701.226 106.579 708.861 122.938Z" stroke="white" stroke-width="3"/>
<path d="M995.138 518.775C991.866 536.512 979.124 551.838 958.49 564.311C937.858 576.784 909.49 586.302 875.341 592.444C807.055 604.728 715.981 603.457 618.333 585.664C520.684 567.87 435.08 536.947 375.621 501.386C345.886 483.602 322.761 464.701 307.923 445.765C293.084 426.828 286.642 408.006 289.914 390.269C293.186 372.532 305.928 357.206 326.562 344.733C347.194 332.26 375.562 322.742 409.711 316.6C477.997 304.316 569.071 305.587 666.72 323.38C764.368 341.174 849.972 372.097 909.431 407.658C939.166 425.442 962.292 444.343 977.129 463.279C991.968 482.216 998.411 501.038 995.138 518.775Z" stroke="white" stroke-width="3"/>
</svg>
